<svg id="Layer_1" data-name="Layer 1" xmlns="http://www.w3.org/2000/svg" xmlns:xlink="http://www.w3.org/1999/xlink" viewBox="0 0 3115.09 1979.6"><defs><style>.cls-1{fill:url(#linear-gradient);}.cls-2{fill:url(#linear-gradient-2);}.cls-3{fill:url(#linear-gradient-3);}.cls-4{fill:url(#linear-gradient-4);}.cls-5{fill:url(#linear-gradient-5);}.cls-6{fill:url(#linear-gradient-6);}.cls-7{fill:#8a53a0;}.cls-8{fill:url(#linear-gradient-7);}.cls-9{font-size:527.54px;font-family:BankGothicBT-Light, BankGothic Lt BT;font-weight:300;}.cls-10{letter-spacing:-0.02em;}</style><linearGradient id="linear-gradient" x1="2895.29" y1="1047.94" x2="3447.23" y2="1349.14" gradientUnits="userSpaceOnUse"><stop offset="0" stop-color="#e487b8"/><stop offset="1" stop-color="#231f20"/></linearGradient><linearGradient id="linear-gradient-2" x1="4024.5" y1="1112.61" x2="4024.63" y2="1112.61" gradientUnits="userSpaceOnUse"><stop offset="0" stop-color="#3950a3"/><stop offset="0.34" stop-color="#6bcce1"/><stop offset="1" stop-color="#fff"/></linearGradient><linearGradient id="linear-gradient-3" x1="3021.35" y1="1124.3" x2="4088.9" y2="1124.3" xlink:href="#linear-gradient-2"/><linearGradient id="linear-gradient-4" x1="2691.65" y1="1129.53" x2="2692.01" y2="1129.53" gradientUnits="userSpaceOnUse"><stop offset="0" stop-color="#2d2d87"/><stop offset="1" stop-color="#31c5f4"/></linearGradient><linearGradient id="linear-gradient-5" x1="2697.11" y1="1124.09" x2="2697.51" y2="1124.09" xlink:href="#linear-gradient-4"/><linearGradient id="linear-gradient-6" x1="1855.79" y1="1113.06" x2="3154.31" y2="1113.06" xlink:href="#linear-gradient-4"/><linearGradient id="linear-gradient-7" x1="952.2" y1="954.79" x2="2070.13" y2="1097.24" gradientUnits="userSpaceOnUse"><stop offset="0.14" stop-color="#ee448d"/><stop offset="0.42" stop-color="#e54d96"/><stop offset="0.59" stop-color="#dc559f"/><stop offset="1" stop-color="#8755a2"/></linearGradient></defs><path class="cls-1" d="M3438.43,1286.45c-53,11.17-110.81-.69-154.7-32.64-58.15-42.32-85-113.5-112.75-178.52-15.12-35.42-11.61-34.07-25.24-48-12-12.24-29.36-15.1-46-17.59l-3-.43c-18.4-2.55-37-2.75-55.57-3.16-8.15-.18-16.31-.38-24.44-1-61.82-5-120.56.48-180.4,15.55-2.54.64-5,1.54-7.53,2.32,2.32.91,4.58,2.14,7,2.67,60.28,13,91.35,73.87,115.29,126.89,29.87,66.16,57.12,122.57,126,153.35,94.59,42.26,195.63,35.37,293.52,9.19,30.71-8.21,60.88-14.17,86.93-33.75A184,184,0,0,1,3438.43,1286.45Z" transform="translate(-973.81 -296.38)"/><path class="cls-2" d="M4024.5,1112.68s0,0,.06,0a.71.71,0,0,0,.07-.09Z" transform="translate(-973.81 -296.38)"/><path class="cls-3" d="M4075.87,793.7c-15.87-12-41-7-57.53,5.45-38.06,28.63-60.41,74.24-91.82,109-173.28,191.57-397.09,396.09-668.83,411.85-40.22,2.33-84.42,2.61-123.86-6.74-39.27-9.31-72.85-34.75-112.48-42.65,9.07,1.81,56.54,66.22,67.18,76.85,27.47,27.44,50.19,50.26,84.37,68.65,151.62,81.56,321.2,46.49,458.48-47,184.08-125.38,327.19-325.48,445.84-510.64,11.8-18.41,17.66-44.69,2.91-60.84A30.35,30.35,0,0,0,4075.87,793.7Z" transform="translate(-973.81 -296.38)"/><path class="cls-4" d="M2692,1129.33l-.22.1c0,.11-.1.2-.14.31Z" transform="translate(-973.81 -296.38)"/><path class="cls-5" d="M2697.51,1123.87a2.06,2.06,0,0,1-.26.12c0,.11-.1.2-.14.31Z" transform="translate(-973.81 -296.38)"/><path class="cls-6" d="M3154.31,1037.7c-4.14-5.27-10-27.64-14.7-41.18A336.39,336.39,0,0,0,3021.3,836c-145.05-106.31-336.74-65.08-485.19,11.42-205.05,105.66-373,269-536.06,429.11q-23.07,22.63-46.27,45.15c-14.24,13.78-28.92,27.82-47.06,35.81-16.83,7.42-33.82,7.11-50.93,1.35,22.08,13.08,39.44,33.44,62.34,45.38a448.18,448.18,0,0,0,101.29,38c67.53,16.43,140.62,13.79,209.16,6.11a750.52,750.52,0,0,0,101.15-18c37.7-9.56,57.08-32.32,80.76-62.51,87.94-112.11,199.5-205.11,322.22-277,65-38.12,134.15-60,209.78-66.34a627.87,627.87,0,0,1,121.06,1.86C3084.47,1028.57,3154.84,1038.37,3154.31,1037.7Z" transform="translate(-973.81 -296.38)"/><path class="cls-7" d="M2408.92,2151.46l-.05,0s0,.05-.06.08Z" transform="translate(-973.81 -296.38)"/><path class="cls-7" d="M1267.26,1408.9s0-.05,0-.08l-.13-.14Z" transform="translate(-973.81 -296.38)"/><path class="cls-7" d="M1250.53,1343.86l-.13-.21c-.08-.07-.14-.15-.23-.22Z" transform="translate(-973.81 -296.38)"/><path class="cls-8" d="M2383,1396.39c-5.52,1.35-8.49,1.65-14.09,3.93-54.91,21.43-113.77,30.56-172.45,32.85-55.51,2.18-111.79.38-166.3-10.25-90.43-17.64-176.62-56.77-247.29-116.18a517,517,0,0,1-131.9-170.11c-69.69-143.75-108.11-301.12-126.29-459.33C1517,610.6,1524,540,1500.57,476.23c-22.62-61.63-66.76-115.86-124.64-147.47C1201,233.21,982.59,360.87,974.15,557.69c-3.09,72.07,15.25,143.13,33.45,212.92,87,333.58,214,705.83,520.36,899.32,92.89,58.67,202,92.74,312.2,91.39,54.54-.67,108-9.57,158.92-29a652.73,652.73,0,0,0,142.06-75.75,644.87,644.87,0,0,0,91.91-78.49,1857.34,1857.34,0,0,0,151.41-177.45c3-4,3.91-3.81,4.45-7.06C2386.72,1396.1,2386,1395.64,2383,1396.39Z" transform="translate(-973.81 -296.38)"/><text class="cls-9" transform="translate(323.03 1855.19) scale(1.17 1)"><tspan class="cls-10">W</tspan><tspan x="442.54" y="0">ebKey</tspan></text></svg>