<svg id="Layer_1" data-name="Layer 1" xmlns="http://www.w3.org/2000/svg" viewBox="0 0 497.53 218.64"><defs><style>.cls-1{fill:#00a79d;}.cls-1,.cls-2{fill-rule:evenodd;}.cls-2,.cls-3{fill:#2bb673;}.cls-3{font-size:91.42px;font-family:PFUniversalMedium-Regular, PF Universal;letter-spacing:-0.04em;}</style></defs><path class="cls-1" d="M438.15,189.05h10.1c-18.36,31.71-14.92,93.28-34.2,126.68l-9.28.36c-3.83-5.7-11.44-8.89-15.89-14.48,10.36-25.62,6.37-69.42,18.46-94.08a32.69,32.69,0,0,1,17-15.73l.1,0A36,36,0,0,1,438.15,189.05Z" transform="translate(-148.83 -186.86)"/><path class="cls-1" d="M278.06,230.22c22.17,0,28.12,20.83,37.12,34.66l26.3,42.54c-.26,3.94-1.41-10.17.6,12,1,22.52-11.68,43.4-30,51.06-15.84,6.62-27.81-7.16-33.26-12.61-3.13-3.14-8.67-6.37-10.05-11,1.29-13.65,1.69-27.23,3-40.88,1.63-33.89.42-45-3.08-65.44C272,237.87,274.71,232.84,278.06,230.22Z" transform="translate(-148.83 -186.86)"/><path class="cls-2" d="M327.11,192.13c35.78,17.66,39.71,99.26,73.45,118.34A9.87,9.87,0,0,0,413,308.35c6.31-7.34,11.74-22.34,14.76-35.42l-.16,8.21-.64,6.67a22.15,22.15,0,0,1-.1,2.82c-1.38,13.63-2.17,25.56-8.75,35.2-10.43,15.31-39.76,26.3-57.9,9.91-21-19-45.68-88.68-75.7-99.82-3.79-1.4-7.43-.53-11,1.26a18.59,18.59,0,0,0-4.79,3.31c-.11-1.87-.13-2.72-.22-3.57-.39-12.12-.13-11.52.48-16.26C271.68,199.28,281,193.9,297,188.89,308.49,185.28,315.79,186.54,327.11,192.13Z" transform="translate(-148.83 -186.86)"/><path class="cls-2" d="M175.22,191.35a49,49,0,0,1,31.9-2c29.33,8.41,25.7,37.09,34.48,71.4,6.85,26.79,12.7,53.89,24.38,75.42,7.6,14,21.1,36.06,44.18,31.24,16.76-3.5,22.47-26.81,29.71-29.71-5.43,22-6.28,38.38-18.28,54.09-14.43,18.87-49.84,16.11-70.85,4.57-45.24-24.86-73.41-66.74-94.47-113.51-10.8-24-10.54-65.76,5.34-83C165.4,195.69,170.1,193.43,175.22,191.35Z" transform="translate(-148.83 -186.86)"/><text class="cls-3" transform="translate(275.03 138.21)">ebkey</text></svg>